<svg width="40" height="40" viewBox="0 0 40 40" fill="none" xmlns="http://www.w3.org/2000/svg">
<path d="M19.9998 10.8333V20.4883L13.5764 26.91C13.4199 27.0665 13.332 27.2787 13.332 27.5C13.332 27.7213 13.4199 27.9335 13.5764 28.09C13.7329 28.2465 13.9451 28.3344 14.1664 28.3344C14.3877 28.3344 14.5999 28.2465 14.7564 28.09L21.4231 21.4233C21.5004 21.3458 21.5617 21.2538 21.6035 21.1526C21.6452 21.0513 21.6666 20.9428 21.6664 20.8333V10.8333C21.6664 10.6123 21.5786 10.4004 21.4223 10.2441C21.2661 10.0878 21.0541 10 20.8331 10C20.6121 10 20.4001 10.0878 20.2438 10.2441C20.0875 10.4004 19.9998 10.6123 19.9998 10.8333ZM34.1664 26.6667H24.1664C23.9454 26.6667 23.7334 26.7545 23.5772 26.9107C23.4209 27.067 23.3331 27.279 23.3331 27.5C23.3331 27.721 23.4209 27.933 23.5772 28.0893C23.7334 28.2455 23.9454 28.3333 24.1664 28.3333H34.1664C34.3874 28.3333 34.5994 28.2455 34.7557 28.0893C34.912 27.933 34.9997 27.721 34.9997 27.5C34.9997 27.279 34.912 27.067 34.7557 26.9107C34.5994 26.7545 34.3874 26.6667 34.1664 26.6667Z" fill="#858585" stroke="#858585"/>
<path d="M32.7285 8.4161C32.4799 8.4161 32.2414 8.51488 32.0656 8.69069C31.8898 8.86651 31.791 9.10497 31.791 9.35361V10.3811C30.307 8.58836 28.4446 7.14622 26.3375 6.15813C24.2303 5.17005 21.9307 4.66051 19.6034 4.66606C16.9824 4.66612 14.4018 5.31257 12.0903 6.54817C9.77886 7.78376 7.80779 9.57035 6.35171 11.7497C4.89563 13.929 3.9995 16.4338 3.7427 19.0422C3.4859 21.6506 3.87636 24.282 4.87948 26.7035C5.8826 29.1249 7.46742 31.2616 9.49357 32.9242C11.5197 34.5869 13.9246 35.7242 16.4953 36.2354C19.066 36.7465 21.723 36.6159 24.2311 35.8549C26.7392 35.0939 29.0209 33.7261 30.8741 31.8726C31.0506 31.6958 31.1497 31.4562 31.1495 31.2063C31.1494 30.9565 31.05 30.7169 30.8732 30.5404C30.6964 30.3639 30.4567 30.2648 30.2069 30.265C29.957 30.2652 29.7175 30.3646 29.541 30.5414C27.5159 32.5705 24.919 33.9322 22.0983 34.4441C19.2776 34.9559 16.3679 34.5935 13.7589 33.4053C11.15 32.2172 8.96647 30.26 7.50099 27.7962C6.03552 25.3323 5.35806 22.4794 5.55941 19.6197C5.76075 16.76 6.83128 14.0302 8.62754 11.796C10.4238 9.56174 12.86 7.92987 15.6097 7.119C18.3594 6.30813 21.2912 6.357 24.0123 7.25907C26.7335 8.16113 29.1139 9.87329 30.8347 12.1661H28.9785C28.7298 12.1661 28.4914 12.2649 28.3155 12.4407C28.1397 12.6166 28.041 12.855 28.041 13.1037C28.041 13.3523 28.1397 13.5908 28.3155 13.7666C28.4914 13.9424 28.7298 14.0412 28.9785 14.0412H32.7285C32.9771 14.0412 33.2156 13.9424 33.3914 13.7666C33.5672 13.5908 33.666 13.3523 33.666 13.1037V9.35361C33.666 9.10497 33.5672 8.86651 33.3914 8.69069C33.2156 8.51488 32.9771 8.4161 32.7285 8.4161Z" fill="#858585" stroke="#858585" stroke-width="0.8"/>
<path d="M29.167 16.666C28.946 16.666 28.7341 16.7538 28.5778 16.9101C28.4215 17.0664 28.3337 17.2783 28.3337 17.4993V18.406C27.1466 18.5781 26.0412 19.1111 25.1673 19.9328C24.2934 20.7545 23.6934 21.8251 23.4487 22.9993C23.3992 23.2418 23.4043 23.4922 23.4637 23.7325C23.5231 23.9727 23.6352 24.1967 23.7919 24.3882C23.9486 24.5797 24.146 24.7339 24.3697 24.8396C24.5935 24.9453 24.8379 24.9999 25.0854 24.9993H33.252C33.4995 24.9999 33.744 24.9453 33.9677 24.8396C34.1914 24.7339 34.3888 24.5797 34.5456 24.3882C34.7023 24.1967 34.8144 23.9727 34.8737 23.7325C34.9331 23.4922 34.9382 23.2418 34.8887 22.9993C34.6438 21.8246 34.0433 20.7537 33.1688 19.9319C32.2943 19.1102 31.1881 18.5774 30.0004 18.406V17.4993C30.0004 17.2783 29.9126 17.0664 29.7563 16.9101C29.6 16.7538 29.3881 16.666 29.167 16.666Z" fill="#858585"/>
</svg>
