<svg width="48" height="48" viewBox="0 0 48 48" fill="none" xmlns="http://www.w3.org/2000/svg">
<path d="M9.35692 38.0005L9.3112 38.3405H9.65424H11.6162H11.8782L11.9135 38.081L13.2662 28.1485H34.7324L36.087 38.081L36.1224 38.3405H36.3842H38.3442H38.6871L38.6416 38.0007L36.3251 20.6865H40.7302C41.262 20.6865 41.7014 20.4643 42.0237 20.0372C42.3472 19.6091 42.4427 19.1225 42.304 18.6049L42.3041 18.6049L42.3023 18.5987L39.9538 10.5281C39.9536 10.5272 39.9533 10.5262 39.9531 10.5253C39.8546 10.1637 39.6637 9.86502 39.3771 9.64467V9.64467L39.3762 9.64401C39.0892 9.42503 38.7527 9.31851 38.3802 9.31851H9.6704C9.29441 9.28932 8.95137 9.38237 8.65983 9.60634C8.37235 9.82584 8.18212 10.1253 8.08517 10.4882L5.73608 18.6011L5.73604 18.6011L5.73469 18.606C5.59436 19.1238 5.68903 19.6104 6.01322 20.0378C6.3368 20.4644 6.77651 20.6865 7.30824 20.6865H11.6852L9.35692 38.0005ZM39.4505 18.0845H8.55286L10.3938 11.9165H37.6551L39.4505 18.0845ZM13.6254 25.5465L14.2521 20.6845H33.7617L34.4115 25.5465H13.6254Z" fill="#9E0529" stroke="#9E0529" stroke-width="0.6"/>
</svg>
