<svg width="48" height="48" viewBox="0 0 48 48" fill="none" xmlns="http://www.w3.org/2000/svg">
<path d="M8 31.75H4.25V26C4.25 21.7181 7.71807 18.25 12 18.25H19.75V28V28.25H20H27.04H27.1602L27.2352 28.1562L34.1952 19.4562L34.25 19.3877V19.3V14V13.75H34H28.25V10.25H34C36.0619 10.25 37.75 11.9381 37.75 14V20.6123L28.8398 31.75H20H19.75V32C19.75 35.1819 17.1819 37.75 14 37.75C10.8181 37.75 8.25 35.1819 8.25 32V31.75H8ZM7.75 28V28.25H8H16H16.25V28V22V21.75H16H12C9.66193 21.75 7.75 23.6619 7.75 26V28ZM12 31.75H11.75V32C11.75 33.2381 12.7619 34.25 14 34.25C15.2381 34.25 16.25 33.2381 16.25 32V31.75H16H12Z" fill="#9E0529" stroke="white" stroke-width="0.5"/>
<path d="M10 12H20V16H10V12ZM38 26C34.68 26 32 28.68 32 32C32 35.32 34.68 38 38 38C41.32 38 44 35.32 44 32C44 28.68 41.32 26 38 26ZM38 34C36.9 34 36 33.1 36 32C36 30.9 36.9 30 38 30C39.1 30 40 30.9 40 32C40 33.1 39.1 34 38 34Z" fill="#9E0529"/>
</svg>
