<svg width="48" height="48" viewBox="0 0 48 48" fill="none" xmlns="http://www.w3.org/2000/svg">
<g clip-path="url(#clip0_1972_8064)">
<mask id="path-1-outside-1_1972_8064" maskUnits="userSpaceOnUse" x="0.571289" y="-1.28516" width="47" height="50" fill="black">
<rect fill="white" x="0.571289" y="-1.28516" width="47" height="50"/>
<path d="M4.25129 22.4234L43.6799 4.49199L4.25129 22.4234ZM36.3084 1.71484L43.6799 4.49199L40.937 11.8634M45.4284 46.2863H36.857V22.2863C36.857 21.8316 37.0376 21.3956 37.3591 21.0741C37.6806 20.7526 38.1166 20.572 38.5713 20.572H43.7141C44.1688 20.572 44.6048 20.7526 44.9263 21.0741C45.2478 21.3956 45.4284 21.8316 45.4284 22.2863V46.2863ZM28.2856 46.2863H19.7141V27.4291C19.7141 26.9745 19.8948 26.5384 20.2162 26.2169C20.5377 25.8955 20.9738 25.7148 21.4284 25.7148H26.5713C27.0259 25.7148 27.462 25.8955 27.7835 26.2169C28.105 26.5384 28.2856 26.9745 28.2856 27.4291V46.2863ZM11.1427 46.2863H2.57129V32.572C2.57129 32.1173 2.7519 31.6813 3.07339 31.3598C3.39488 31.0383 3.83092 30.8577 4.28557 30.8577H9.42843C9.88309 30.8577 10.3191 31.0383 10.6406 31.3598C10.9621 31.6813 11.1427 32.1173 11.1427 32.572V46.2863Z"/>
</mask>
<path d="M3.42333 20.6028C2.41785 21.0601 1.97345 22.2459 2.43072 23.2514C2.88799 24.2569 4.07378 24.7013 5.07925 24.244L3.42333 20.6028ZM43.6799 4.49199L45.5543 5.18945C45.9384 4.15721 45.4156 3.0087 44.385 2.6204L43.6799 4.49199ZM37.0135 -0.156739C35.9799 -0.54616 34.8263 -0.023911 34.4368 1.00974C34.0474 2.04338 34.5697 3.19701 35.6033 3.58643L37.0135 -0.156739ZM39.0626 11.1659C38.6774 12.2012 39.2043 13.3527 40.2395 13.7379C41.2748 14.1231 42.4262 13.5961 42.8114 12.5609L39.0626 11.1659ZM45.4284 46.2863V48.2863C46.533 48.2863 47.4284 47.3908 47.4284 46.2863H45.4284ZM36.857 46.2863H34.857C34.857 47.3908 35.7524 48.2863 36.857 48.2863V46.2863ZM28.2856 46.2863V48.2863C29.3901 48.2863 30.2856 47.3908 30.2856 46.2863H28.2856ZM19.7141 46.2863H17.7141C17.7141 47.3908 18.6096 48.2863 19.7141 48.2863V46.2863ZM11.1427 46.2863V48.2863C12.2473 48.2863 13.1427 47.3908 13.1427 46.2863H11.1427ZM2.57129 46.2863H0.571289C0.571289 47.3908 1.46672 48.2863 2.57129 48.2863L2.57129 46.2863ZM5.07925 24.244L44.5078 6.31256L42.8519 2.67142L3.42333 20.6028L5.07925 24.244ZM35.6033 3.58643L42.9748 6.36357L44.385 2.6204L37.0135 -0.156739L35.6033 3.58643ZM41.8054 3.79452L39.0626 11.1659L42.8114 12.5609L45.5543 5.18945L41.8054 3.79452ZM45.4284 44.2863H36.857V48.2863H45.4284V44.2863ZM38.857 46.2863V22.2863H34.857V46.2863H38.857ZM38.857 22.2863C38.857 22.362 38.8269 22.4347 38.7733 22.4883L35.9449 19.6599C35.2483 20.3564 34.857 21.3012 34.857 22.2863H38.857ZM38.7733 22.4883C38.7197 22.5419 38.6471 22.572 38.5713 22.572V18.572C37.5862 18.572 36.6415 18.9633 35.9449 19.6599L38.7733 22.4883ZM38.5713 22.572H43.7141V18.572H38.5713V22.572ZM43.7141 22.572C43.6384 22.572 43.5657 22.5419 43.5121 22.4883L46.3405 19.6599C45.644 18.9633 44.6992 18.572 43.7141 18.572V22.572ZM43.5121 22.4883C43.4585 22.4347 43.4284 22.362 43.4284 22.2863H47.4284C47.4284 21.3012 47.0371 20.3564 46.3405 19.6599L43.5121 22.4883ZM43.4284 22.2863V46.2863H47.4284V22.2863H43.4284ZM28.2856 44.2863H19.7141V48.2863H28.2856V44.2863ZM21.7141 46.2863V27.4291H17.7141V46.2863H21.7141ZM21.7141 27.4291C21.7141 27.5049 21.684 27.5776 21.6305 27.6312L18.802 24.8027C18.1055 25.4993 17.7141 26.444 17.7141 27.4291H21.7141ZM21.6305 27.6312C21.5769 27.6847 21.5042 27.7148 21.4284 27.7148V23.7148C20.4433 23.7148 19.4986 24.1062 18.802 24.8027L21.6305 27.6312ZM21.4284 27.7148H26.5713V23.7148H21.4284V27.7148ZM26.5713 27.7148C26.4955 27.7148 26.4228 27.6847 26.3693 27.6312L29.1977 24.8027C28.5011 24.1062 27.5564 23.7148 26.5713 23.7148V27.7148ZM26.3693 27.6312C26.3157 27.5776 26.2856 27.5049 26.2856 27.4291H30.2856C30.2856 26.444 29.8943 25.4993 29.1977 24.8027L26.3693 27.6312ZM26.2856 27.4291V46.2863H30.2856V27.4291H26.2856ZM11.1427 44.2863H2.57129V48.2863H11.1427V44.2863ZM4.57129 46.2863V32.572H0.571289V46.2863H4.57129ZM4.57129 32.572C4.57129 32.6478 4.54119 32.7204 4.48761 32.774L1.65918 29.9456C0.962613 30.6422 0.571289 31.5869 0.571289 32.572H4.57129ZM4.48761 32.774C4.43402 32.8276 4.36135 32.8577 4.28557 32.8577V28.8577C3.30049 28.8577 2.35574 29.249 1.65918 29.9456L4.48761 32.774ZM4.28557 32.8577H9.42843V28.8577H4.28557V32.8577ZM9.42843 32.8577C9.35266 32.8577 9.27999 32.8276 9.2264 32.774L12.0548 29.9456C11.3583 29.249 10.4135 28.8577 9.42843 28.8577V32.8577ZM9.2264 32.774C9.17282 32.7204 9.14272 32.6478 9.14272 32.572H13.1427C13.1427 31.5869 12.7514 30.6422 12.0548 29.9456L9.2264 32.774ZM9.14272 32.572V46.2863H13.1427V32.572H9.14272Z" fill="#9E0529" mask="url(#path-1-outside-1_1972_8064)"/>
</g>
<defs>
<clipPath id="clip0_1972_8064">
<rect width="48" height="48" fill="white"/>
</clipPath>
</defs>
</svg>
