<svg width="48" height="48" viewBox="0 0 48 48" fill="none" xmlns="http://www.w3.org/2000/svg">
<path d="M24.6 17.86L19.76 13H31V20H34V10H19.76L24.6 5.14L22.48 3L14 11.5L22.48 20L24.6 17.86ZM24 28C22.8133 28 21.6533 28.3519 20.6666 29.0112C19.6799 29.6705 18.9108 30.6075 18.4567 31.7039C18.0026 32.8003 17.8838 34.0067 18.1153 35.1705C18.3468 36.3344 18.9182 37.4035 19.7574 38.2426C20.5965 39.0818 21.6656 39.6532 22.8295 39.8847C23.9933 40.1162 25.1997 39.9974 26.2961 39.5433C27.3925 39.0892 28.3295 38.3201 28.9888 37.3334C29.6481 36.3467 30 35.1867 30 34C30 32.4087 29.3679 30.8826 28.2426 29.7574C27.1174 28.6321 25.5913 28 24 28ZM6 22V46H42V22M38 38C36.9391 38 35.9217 38.4214 35.1716 39.1716C34.4214 39.9217 34 40.9391 34 42H14C14 40.9391 13.5786 39.9217 12.8284 39.1716C12.0783 38.4214 11.0609 38 10 38V30C11.0609 30 12.0783 29.5786 12.8284 28.8284C13.5786 28.0783 14 27.0609 14 26H34C34 27.0609 34.4214 28.0783 35.1716 28.8284C35.9217 29.5786 36.9391 30 38 30V38Z" fill="#9E0529"/>
</svg>
