<svg width="37" height="44" viewBox="0 0 37 44" fill="none" xmlns="http://www.w3.org/2000/svg">
<path fill-rule="evenodd" clip-rule="evenodd" d="M8 3C8 2.20435 8.31607 1.44129 8.87868 0.87868C9.44129 0.31607 10.2044 0 11 0H29C29.7956 0 30.5587 0.31607 31.1213 0.87868C31.6839 1.44129 32 2.20435 32 3V9H32.33C32.9988 9.00002 33.6484 9.22351 34.1756 9.63497C34.7029 10.0464 35.0775 10.6223 35.24 11.271L35.99 14.271C36.1008 14.7133 36.1093 15.1751 36.0149 15.6213C35.9205 16.0674 35.7256 16.4861 35.445 16.8456C35.1645 17.2051 34.8056 17.496 34.3958 17.696C33.986 17.896 33.536 18 33.08 18H32V19.5H33.5C34.2957 19.5 35.0587 19.8161 35.6213 20.3787C36.1839 20.9413 36.5 21.7044 36.5 22.5V24C36.5 24.7956 36.1839 25.5587 35.6213 26.1213C35.0587 26.6839 34.2957 27 33.5 27H32V33C32 33.7957 31.6839 34.5587 31.1213 35.1213C30.5587 35.6839 29.7956 36 29 36H22.121L21.233 36.888L18.755 41.841C18.506 42.3392 18.1233 42.7583 17.6496 43.0513C17.1759 43.3443 16.63 43.4997 16.073 43.5H6.953C6.36143 43.4995 5.78319 43.3242 5.291 42.996L1.835 40.692C1.42425 40.418 1.0875 40.0468 0.854617 39.6114C0.621735 39.1759 0.499927 38.6898 0.500001 38.196V27.108C0.499869 26.9655 0.509894 26.8231 0.530001 26.682L3.332 7.077C3.43385 6.36186 3.79032 5.70748 4.33593 5.23407C4.88154 4.76066 5.57964 4.50001 6.302 4.5H8V3ZM8 7.5H6.302L3.5 27.108V38.196L6.953 40.5H9.5V36.501C9.5 35.8519 9.71053 35.2203 10.1 34.701L18.02 24.141L15.5 21.621L9.062 28.062L6.938 25.938L8 24.879V7.5ZM11 21.879L13.379 19.5C13.9416 18.9376 14.7045 18.6216 15.5 18.6216C16.2955 18.6216 17.0584 18.9376 17.621 19.5L20.141 22.02C20.6516 22.5306 20.9609 23.2082 21.0122 23.9284C21.0634 24.6487 20.8532 25.3633 20.42 25.941L15.125 33H29V3H11V21.879ZM32 15H33.08L32.33 12H32V15ZM32 22.5V24H33.5V22.5H32ZM12.875 36L12.5 36.501V40.5H16.073L18.323 36H12.875ZM18.5 7.5V6H21.5V7.5H18.5ZM20 7.5C18.8065 7.5 17.6619 7.97411 16.818 8.81802C15.9741 9.66193 15.5 10.8065 15.5 12H14V15H26V12H24.5C24.5 10.8065 24.0259 9.66193 23.182 8.81802C22.3381 7.97411 21.1935 7.5 20 7.5ZM20 10.5C19.6022 10.5 19.2206 10.658 18.9393 10.9393C18.658 11.2206 18.5 11.6022 18.5 12H21.5C21.5 11.6022 21.342 11.2206 21.0607 10.9393C20.7794 10.658 20.3978 10.5 20 10.5ZM14.438 26.562L12.938 25.062L15.062 22.938L16.562 24.438L14.438 26.562Z" fill="#9E0529"/>
</svg>
